<?xml version="1.0" encoding="UTF-8"?>
<svg version="1.1" xmlns="http://www.w3.org/2000/svg" width="166" height="151">
<path d="M0 0 C5.50030865 -0.09717012 10.99268622 -0.05115611 16.49267578 0.05029297 C17.76755859 0.07349609 19.04244141 0.09669922 20.35595703 0.12060547 C24.01424698 0.19122117 27.67202332 0.27645309 31.32980347 0.36968994 C32.79403504 0.40627515 34.25833263 0.44032137 35.72268677 0.47161865 C49.54389007 0.77707497 62.6273937 1.52802836 73.36767578 11.23779297 C80.16252615 18.56148782 81.63885196 28.22702378 81.65380859 37.84716797 C81.6587735 38.61705551 81.6637384 39.38694305 81.66885376 40.18016052 C81.68342225 42.72021391 81.69027087 45.26020471 81.69580078 47.80029297 C81.70004185 49.10953232 81.70004185 49.10953232 81.70436859 50.44522095 C81.71934505 55.07025453 81.72858241 59.69525708 81.73291016 64.3203125 C81.73837189 69.06646195 81.76235549 73.81232119 81.79088211 78.55838013 C81.80964168 82.23387437 81.81472127 85.90930082 81.81624603 89.58483887 C81.81924651 91.33249486 81.82718536 93.08015042 81.84043121 94.82775879 C82.03318121 122.22918444 82.03318121 122.22918444 72.49267578 132.05029297 C71.88166016 132.68837891 71.27064453 133.32646484 70.64111328 133.98388672 C61.19807667 143.03189591 50.11583978 142.54179882 37.82470703 142.63232422 C36.09989714 142.65430153 34.3750993 142.67724275 32.65031433 142.70109558 C29.0436842 142.74780158 25.43713543 142.78450234 21.83032227 142.8137207 C17.24560968 142.85142326 12.66153004 142.91146197 8.07716846 142.97884083 C4.51581752 143.02907903 0.95440797 143.06848792 -2.60711098 143.10468102 C-4.2953468 143.12285272 -5.98355408 143.14395679 -7.67171288 143.16825294 C-23.26154515 143.3802385 -38.29418555 143.45416708 -51.13232422 133.36279297 C-52.30794922 132.21810547 -52.30794922 132.21810547 -53.50732422 131.05029297 C-53.50732422 130.39029297 -53.50732422 129.73029297 -53.50732422 129.05029297 C-54.16732422 129.05029297 -54.82732422 129.05029297 -55.50732422 129.05029297 C-58.52227151 121.4473824 -59.65647716 114.85181634 -59.66845703 106.63330078 C-59.67590439 105.39787033 -59.67590439 105.39787033 -59.6835022 104.13748169 C-59.69804736 101.42611845 -59.7049132 98.71481373 -59.71044922 96.00341797 C-59.71469028 94.60719334 -59.71469028 94.60719334 -59.71901703 93.18276215 C-59.73397925 88.25644143 -59.74322729 83.33014977 -59.74755859 78.40380859 C-59.75303722 73.33567333 -59.77706098 68.26780753 -59.80553055 63.19975662 C-59.82422877 59.28419233 -59.82936635 55.36869201 -59.83089447 51.45308685 C-59.83390557 49.5857267 -59.84188146 47.71836726 -59.85507965 45.85105133 C-59.94266094 32.50694616 -59.73035472 20.63144005 -50.50732422 10.05029297 C-37.35147181 -2.1221927 -16.59493835 0.33286829 0 0 Z " fill="#8EBD34" transform="translate(71.50732421875,1.94970703125)"/>
<path d="M0 0 C0.02325442 7.55447097 0.04098152 15.10893819 0.05181217 22.66343689 C0.05701248 26.17195915 0.06405785 29.68045676 0.07543945 33.18896484 C0.08846578 37.23014552 0.09325178 41.27130065 0.09765625 45.3125 C0.10281754 46.5617627 0.10797882 47.81102539 0.11329651 49.09814453 C0.11436953 65.87052223 0.11436953 65.87052223 -3.8125 72.75 C-4.31394531 73.65234375 -4.81539062 74.5546875 -5.33203125 75.484375 C-7.01387696 78.02092919 -8.70340636 80.00620268 -11 82 C-11.66 82 -12.32 82 -13 82 C-13 82.99 -13 83.98 -13 85 C-12.34 85.33 -11.68 85.66 -11 86 C-12.24735567 86.6509259 -13.49801832 87.29551669 -14.75 87.9375 C-15.79414063 88.47697266 -15.79414063 88.47697266 -16.859375 89.02734375 C-21.33751996 91.06212129 -25.62121841 91.17545747 -30.48388672 91.23706055 C-31.2325148 91.25017273 -31.98114288 91.26328491 -32.75245667 91.27679443 C-35.22814865 91.31856858 -37.70387187 91.35312027 -40.1796875 91.38671875 C-41.91163272 91.41240332 -43.64357647 91.43818714 -45.3755188 91.46406555 C-49.01202546 91.51704166 -52.64856268 91.5659424 -56.28515625 91.61254883 C-60.90912979 91.67253093 -65.53274793 91.74684489 -70.15644646 91.82492352 C-73.73923974 91.88303045 -77.32211972 91.9310855 -80.90509415 91.976511 C-82.60730313 91.99967636 -84.30946857 92.02635259 -86.01156235 92.05682945 C-112.22822685 92.51451544 -112.22822685 92.51451544 -119 88 C-117.35 88 -115.7 88 -114 88 C-115.08667969 87.47212891 -115.08667969 87.47212891 -116.1953125 86.93359375 C-124.66785927 82.60694653 -130.45420784 78.04177001 -134 69 C-135.97120784 61.60941274 -136.26917802 54.48052474 -136.1953125 46.8671875 C-136.1924826 45.74933868 -136.18965271 44.63148987 -136.18673706 43.47976685 C-136.17563217 39.94473099 -136.15054578 36.40995797 -136.125 32.875 C-136.11495767 30.46354535 -136.10583402 28.05208669 -136.09765625 25.640625 C-136.07572467 19.76032852 -136.04234492 13.88018305 -136 8 C-133.03 8.495 -133.03 8.495 -130 9 C-130 9.66 -130 10.32 -130 11 C-129.113125 11.12375 -128.22625 11.2475 -127.3125 11.375 C-124 12 -124 12 -119 14 C-118.67 20.27 -118.34 26.54 -118 33 C-114.38671875 33.22786458 -110.7734375 33.45572917 -107.16015625 33.68359375 C-104 34 -104 34 -103 35 C-102.7905639 36.97509873 -102.63196178 38.95571682 -102.5 40.9375 C-102.32264916 45.12167415 -102.32264916 45.12167415 -101 49 C-100.98385116 50.6696807 -101.03484222 52.34028286 -101.12109375 54.0078125 C-101.16943359 54.99394531 -101.21777344 55.98007813 -101.26757812 56.99609375 C-101.32365234 58.02863281 -101.37972656 59.06117187 -101.4375 60.125 C-101.48970703 61.16527344 -101.54191406 62.20554688 -101.59570312 63.27734375 C-101.72560946 65.85185116 -101.86058252 68.42599296 -102 71 C-96.59578676 70.95522223 -91.19267374 70.88476045 -85.7890625 70.79248047 C-83.95842339 70.76459784 -82.12767121 70.74322432 -80.296875 70.72900391 C-65.92841979 70.61084227 -50.4793128 70.0731773 -38 62 C-37.36191406 61.59265625 -36.72382812 61.1853125 -36.06640625 60.765625 C-24.61315701 52.8175612 -17.89079321 42.64879652 -15 29 C-14.92088457 27.34010718 -14.89221115 25.6773713 -14.90234375 24.015625 C-14.90556641 23.08105469 -14.90878906 22.14648438 -14.91210938 21.18359375 C-14.92048828 20.21550781 -14.92886719 19.24742188 -14.9375 18.25 C-14.94201172 17.26644531 -14.94652344 16.28289062 -14.95117188 15.26953125 C-14.96293517 12.84629209 -14.97937316 10.42317727 -15 8 C-14.09894531 7.73445313 -13.19789063 7.46890625 -12.26953125 7.1953125 C-9.18089853 6.06613495 -7.22443914 4.9144035 -4.6875 2.875 C-1.07655502 0 -1.07655502 0 0 0 Z " fill="#78AE2A" transform="translate(150,53)"/>
<path d="M0 0 C5.94095354 -0.04613338 11.88127511 -0.08589221 17.82226562 -0.10986328 C19.83953976 -0.11986576 21.8567996 -0.13347206 23.87402344 -0.15087891 C26.78844754 -0.17538198 29.70267848 -0.18654091 32.6171875 -0.1953125 C33.50614716 -0.20563507 34.39510681 -0.21595764 35.31100464 -0.22659302 C51.17210918 -0.22937863 64.13990327 5.35558347 75.6875 16.1875 C84.62883714 25.47273473 88.40507023 36.16837477 88.3125 48.875 C88.30831055 49.66438965 88.30412109 50.4537793 88.29980469 51.26708984 C88.18393821 57.25886594 87.38625945 62.45972806 85 68 C84.74476563 68.66773437 84.48953125 69.33546875 84.2265625 70.0234375 C79.65579213 80.63265679 68.95075996 90.68620756 58.34765625 95.10546875 C50.24153474 98.11942266 43.4981913 99.14510914 34.88671875 99.09765625 C33.91716751 99.0962413 32.94761627 99.09482635 31.94868469 99.09336853 C28.86159133 99.08778513 25.77457133 99.07523564 22.6875 99.0625 C20.59049584 99.05748286 18.49349054 99.05292032 16.39648438 99.04882812 C11.26427213 99.03867337 6.13221788 99.01909465 1 99 C1 92.73 1 86.46 1 80 C7.93 80 14.86 80 22 80 C22 80.66 22 81.32 22 82 C39.42093915 81.4583483 39.42093915 81.4583483 54.40625 73.20703125 C56 72 56 72 58 72 C58.43119141 71.13375 58.43119141 71.13375 58.87109375 70.25 C59.58402315 68.82907497 60.30441488 67.41184749 61.03515625 66 C61.37417969 65.34 61.71320313 64.68 62.0625 64 C62.40410156 63.34 62.74570313 62.68 63.09765625 62 C66.45564362 54.55718816 65.90978679 45.76990177 63.3125 38.1875 C59.97188569 30.09785908 56.05969874 24.76027111 48 21 C39.55235931 17.74569219 30.94906264 17.35023322 22 17 C22 18.32 22 19.64 22 21 C11.11 21.495 11.11 21.495 0 22 C0 14.74 0 7.48 0 0 Z " fill="#F2F8E6" transform="translate(48,24)"/>
<path d="M0 0 C2.83392926 -0.08174796 5.66544819 -0.14084985 8.5 -0.1875 C9.29148438 -0.21263672 10.08296875 -0.23777344 10.8984375 -0.26367188 C16.5448297 -0.33309473 20.88396558 0.62720842 26 3 C26.76570313 3.35320313 27.53140625 3.70640625 28.3203125 4.0703125 C35.75624175 8.41598544 40.12480218 15.35349312 42.53125 23.546875 C44.03226582 31.40219113 43.68153498 38.86141388 40 46 C39.68289062 46.66644531 39.36578125 47.33289063 39.0390625 48.01953125 C35.37209501 54.82032557 29.47251442 58.5850011 22.80078125 62.1875 C18.60363483 63.40508223 14.53129009 63.20921964 10.1875 63.125 C9.30384766 63.11597656 8.42019531 63.10695312 7.50976562 63.09765625 C5.33972641 63.07419637 3.16982753 63.03832865 1 63 C-0.1006313 58.75933235 0.10002413 55.09519239 0.5 50.75 C0.7051041 48.50317778 0.88203778 46.25307849 1 44 C0.67 43.67 0.34 43.34 0 43 C0.02320313 43.98742187 0.04640625 44.97484375 0.0703125 45.9921875 C0.08835938 47.27351563 0.10640625 48.55484375 0.125 49.875 C0.14820313 51.15117188 0.17140625 52.42734375 0.1953125 53.7421875 C0 57 0 57 -2 59 C-3.93945313 59.25878906 -3.93945313 59.25878906 -6.28125 59.265625 C-7.12300781 59.26820312 -7.96476562 59.27078125 -8.83203125 59.2734375 C-9.71246094 59.26570313 -10.59289062 59.25796875 -11.5 59.25 C-12.82064453 59.26160156 -12.82064453 59.26160156 -14.16796875 59.2734375 C-15.00972656 59.27085938 -15.85148437 59.26828125 -16.71875 59.265625 C-17.49154297 59.26336914 -18.26433594 59.26111328 -19.06054688 59.25878906 C-21 59 -21 59 -23 57 C-23.1953125 53.7421875 -23.1953125 53.7421875 -23.125 49.875 C-23.10695313 48.59367187 -23.08890625 47.31234375 -23.0703125 45.9921875 C-23.04710937 45.00476563 -23.02390625 44.01734375 -23 43 C-24.49853516 43.01740234 -24.49853516 43.01740234 -26.02734375 43.03515625 C-27.31769531 43.04417969 -28.60804687 43.05320313 -29.9375 43.0625 C-31.22527344 43.07410156 -32.51304688 43.08570313 -33.83984375 43.09765625 C-37 43 -37 43 -38 42 C-38.09880797 40.52347336 -38.13079245 39.04232764 -38.1328125 37.5625 C-38.13410156 36.66789062 -38.13539062 35.77328125 -38.13671875 34.8515625 C-38.13091797 33.44003906 -38.13091797 33.44003906 -38.125 32 C-38.12886719 31.05898437 -38.13273437 30.11796875 -38.13671875 29.1484375 C-38.13542969 28.25382812 -38.13414063 27.35921875 -38.1328125 26.4375 C-38.13112061 25.19806641 -38.13112061 25.19806641 -38.12939453 23.93359375 C-38 22 -38 22 -37 21 C-34.64686445 20.92728259 -32.29166332 20.91629132 -29.9375 20.9375 C-28.64714844 20.94652344 -27.35679688 20.95554687 -26.02734375 20.96484375 C-25.02832031 20.97644531 -24.02929688 20.98804687 -23 21 C-23.02320313 20.01257813 -23.04640625 19.02515625 -23.0703125 18.0078125 C-23.08835937 16.72648437 -23.10640625 15.44515625 -23.125 14.125 C-23.14820313 12.84882812 -23.17140625 11.57265625 -23.1953125 10.2578125 C-23 7 -23 7 -21 5 C-18.84521484 4.68115234 -18.84521484 4.68115234 -16.2109375 4.5859375 C-15.26992188 4.54726563 -14.32890625 4.50859375 -13.359375 4.46875 C-12.37453125 4.4378125 -11.3896875 4.406875 -10.375 4.375 C-9.38242187 4.33632813 -8.38984375 4.29765625 -7.3671875 4.2578125 C-4.91164615 4.1633686 -2.4561159 4.07780125 0 4 C0 2.68 0 1.36 0 0 Z " fill="#93BC22" transform="translate(71,42)"/>
<path d="M0 0 C0.84175781 -0.00257812 1.68351562 -0.00515625 2.55078125 -0.0078125 C3.87142578 0.00378906 3.87142578 0.00378906 5.21875 0.015625 C6.09917969 0.00789063 6.97960937 0.00015625 7.88671875 -0.0078125 C8.72847656 -0.00523438 9.57023437 -0.00265625 10.4375 0 C11.59668945 0.00338379 11.59668945 0.00338379 12.77929688 0.00683594 C14.71875 0.265625 14.71875 0.265625 16.71875 2.265625 C16.9140625 5.5234375 16.9140625 5.5234375 16.84375 9.390625 C16.82570312 10.67195313 16.80765625 11.95328125 16.7890625 13.2734375 C16.76585937 14.26085938 16.74265625 15.24828125 16.71875 16.265625 C17.71777344 16.25402344 18.71679688 16.24242187 19.74609375 16.23046875 C21.03644531 16.22144531 22.32679687 16.21242188 23.65625 16.203125 C24.94402344 16.19152344 26.23179688 16.17992187 27.55859375 16.16796875 C30.71875 16.265625 30.71875 16.265625 31.71875 17.265625 C31.81755797 18.74215164 31.84954245 20.22329736 31.8515625 21.703125 C31.85349609 23.04503906 31.85349609 23.04503906 31.85546875 24.4140625 C31.85160156 25.35507813 31.84773438 26.29609375 31.84375 27.265625 C31.84955078 28.67714844 31.84955078 28.67714844 31.85546875 30.1171875 C31.85417969 31.01179688 31.85289063 31.90640625 31.8515625 32.828125 C31.85043457 33.65441406 31.84930664 34.48070312 31.84814453 35.33203125 C31.71875 37.265625 31.71875 37.265625 30.71875 38.265625 C28.36561445 38.33834241 26.01041332 38.34933368 23.65625 38.328125 C22.36589844 38.31910156 21.07554688 38.31007812 19.74609375 38.30078125 C18.74707031 38.28917969 17.74804688 38.27757812 16.71875 38.265625 C16.74195313 39.25304687 16.76515625 40.24046875 16.7890625 41.2578125 C16.80710938 42.53914063 16.82515625 43.82046875 16.84375 45.140625 C16.86695313 46.41679688 16.89015625 47.69296875 16.9140625 49.0078125 C16.71875 52.265625 16.71875 52.265625 14.71875 54.265625 C12.77929687 54.52441406 12.77929687 54.52441406 10.4375 54.53125 C9.59574219 54.53382812 8.75398438 54.53640625 7.88671875 54.5390625 C7.00628906 54.53132813 6.12585938 54.52359375 5.21875 54.515625 C3.89810547 54.52722656 3.89810547 54.52722656 2.55078125 54.5390625 C1.70902344 54.53648438 0.86726563 54.53390625 0 54.53125 C-0.77279297 54.52899414 -1.54558594 54.52673828 -2.34179688 54.52441406 C-4.28125 54.265625 -4.28125 54.265625 -6.28125 52.265625 C-6.4765625 49.0078125 -6.4765625 49.0078125 -6.40625 45.140625 C-6.38820313 43.85929687 -6.37015625 42.57796875 -6.3515625 41.2578125 C-6.32835937 40.27039063 -6.30515625 39.28296875 -6.28125 38.265625 C-7.77978516 38.28302734 -7.77978516 38.28302734 -9.30859375 38.30078125 C-10.59894531 38.30980469 -11.88929687 38.31882813 -13.21875 38.328125 C-14.50652344 38.33972656 -15.79429688 38.35132813 -17.12109375 38.36328125 C-20.28125 38.265625 -20.28125 38.265625 -21.28125 37.265625 C-21.38005797 35.78909836 -21.41204245 34.30795264 -21.4140625 32.828125 C-21.41535156 31.93351562 -21.41664062 31.03890625 -21.41796875 30.1171875 C-21.41216797 28.70566406 -21.41216797 28.70566406 -21.40625 27.265625 C-21.41011719 26.32460937 -21.41398437 25.38359375 -21.41796875 24.4140625 C-21.41667969 23.51945312 -21.41539063 22.62484375 -21.4140625 21.703125 C-21.41237061 20.46369141 -21.41237061 20.46369141 -21.41064453 19.19921875 C-21.28125 17.265625 -21.28125 17.265625 -20.28125 16.265625 C-17.92811445 16.19290759 -15.57291332 16.18191632 -13.21875 16.203125 C-11.92839844 16.21214844 -10.63804688 16.22117187 -9.30859375 16.23046875 C-8.30957031 16.24207031 -7.31054688 16.25367188 -6.28125 16.265625 C-6.30445313 15.27820312 -6.32765625 14.29078125 -6.3515625 13.2734375 C-6.36960937 11.99210937 -6.38765625 10.71078125 -6.40625 9.390625 C-6.42945313 8.11445312 -6.45265625 6.83828125 -6.4765625 5.5234375 C-6.18104771 0.59425077 -4.52594241 0.01321168 0 0 Z " fill="#F4F9E5" transform="translate(54.28125,46.734375)"/>
<path d="M0 0 C2.83392926 -0.08174796 5.66544819 -0.14084985 8.5 -0.1875 C9.29148437 -0.21263672 10.08296875 -0.23777344 10.8984375 -0.26367188 C16.5448297 -0.33309473 20.88396558 0.62720842 26 3 C26.76570313 3.35320313 27.53140625 3.70640625 28.3203125 4.0703125 C36.16494327 8.65483697 39.94282633 15.64127891 42.5546875 24.15234375 C43 26 43 26 43 28 C33.92981571 29.76773893 25.28582994 31.44218238 16 31 C16 34.3 16 37.6 16 41 C15.67 41 15.34 41 15 41 C14.505 31.595 14.505 31.595 14 22 C7.07 21.505 7.07 21.505 0 21 C-0.1953125 17.45182292 -0.390625 13.90364583 -0.5859375 10.35546875 C-0.76102939 6.87244766 -0.76102939 6.87244766 -3 4 C-2.01 4 -1.02 4 0 4 C0 2.68 0 1.36 0 0 Z " fill="#A7C82C" transform="translate(71,42)"/>
<path d="M0 0 C0.33 0 0.66 0 1 0 C1 7.26 1 14.52 1 22 C1.66 21.67 2.32 21.34 3 21 C4.52148326 20.91627341 6.04655778 20.89269973 7.5703125 20.90234375 C8.46621094 20.90556641 9.36210938 20.90878906 10.28515625 20.91210938 C11.22230469 20.92048828 12.15945312 20.92886719 13.125 20.9375 C14.06988281 20.94201172 15.01476562 20.94652344 15.98828125 20.95117188 C18.32558387 20.96297643 20.66276061 20.97944241 23 21 C23 19.68 23 18.36 23 17 C27.95 17 32.9 17 38 17 C38 17.33 38 17.66 38 18 C33.38 18 28.76 18 24 18 C24 19.32 24 20.64 24 22 C21.33446563 22.88851146 19.5579683 23.16731278 16.8046875 23.28125 C16.00675781 23.31863281 15.20882812 23.35601562 14.38671875 23.39453125 C12.7044408 23.46517123 11.02214895 23.53548071 9.33984375 23.60546875 C5.34620992 23.4025851 5.34620992 23.4025851 2 25 C1.76472227 27.34987262 1.58613583 29.70556039 1.4375 32.0625 C1.293125 34.351875 1.14875 36.64125 1 39 C-3.62 39.33 -8.24 39.66 -13 40 C-13 46.6 -13 53.2 -13 60 C-6.07 60.495 -6.07 60.495 1 61 C1.22786458 64.61328125 1.45572917 68.2265625 1.68359375 71.83984375 C1.64919188 74.86023957 1.64919188 74.86023957 3 76 C4.40348735 76.09860131 5.81180477 76.13078937 7.21875 76.1328125 C8.06824219 76.13410156 8.91773437 76.13539062 9.79296875 76.13671875 C10.68628906 76.13285156 11.57960938 76.12898438 12.5 76.125 C13.39332031 76.12886719 14.28664063 76.13273437 15.20703125 76.13671875 C16.48126953 76.13478516 16.48126953 76.13478516 17.78125 76.1328125 C18.56564453 76.13168457 19.35003906 76.13055664 20.15820312 76.12939453 C22.01752988 76.20107442 22.01752988 76.20107442 23 75 C23.23527773 72.65012738 23.41386417 70.29443961 23.5625 67.9375 C23.64628906 66.64714844 23.73007813 65.35679688 23.81640625 64.02734375 C23.90728516 62.52880859 23.90728516 62.52880859 24 61 C27.96 61 31.92 61 36 61 C36 61.33 36 61.66 36 62 C32.37 62 28.74 62 25 62 C25 68.27 25 74.54 25 81 C29.62 81 34.24 81 39 81 C39 81.33 39 81.66 39 82 C33.72 82 28.44 82 23 82 C23 81.34 23 80.68 23 80 C16.07 80 9.14 80 2 80 C2 86.27 2 92.54 2 99 C14.87 99 27.74 99 41 99 C41 99.33 41 99.66 41 100 C27.8 100 14.6 100 1 100 C1.0625 88.5625 1.0625 88.5625 1.09008789 84.95141602 C1.09258545 84.01998779 1.09508301 83.08855957 1.09765625 82.12890625 C1.10289307 81.17056885 1.10812988 80.21223145 1.11352539 79.22485352 C1.2505313 77.02714661 1.2505313 77.02714661 0 76 C-0.23427778 73.98405418 -0.41336124 71.961526 -0.5625 69.9375 C-0.64628906 68.83277344 -0.73007812 67.72804688 -0.81640625 66.58984375 C-0.87699219 65.73519531 -0.93757813 64.88054687 -1 64 C-2.010625 64.04125 -3.02125 64.0825 -4.0625 64.125 C-8.0761279 63.99758324 -11.23054063 63.35700537 -15 62 C-16.20210117 59.59579765 -16.12919958 58.06931513 -16.1328125 55.38671875 C-16.13410156 54.46826172 -16.13539062 53.54980469 -16.13671875 52.60351562 C-16.13091797 51.16008789 -16.13091797 51.16008789 -16.125 49.6875 C-16.12886719 48.73681641 -16.13273437 47.78613281 -16.13671875 46.80664062 C-16.13542969 45.88431641 -16.13414063 44.96199219 -16.1328125 44.01171875 C-16.13168457 43.17084717 -16.13055664 42.32997559 -16.12939453 41.46362305 C-15.9943871 38.89313248 -15.56402745 36.50843786 -15 34 C-14.34 34 -13.68 34 -13 34 C-13 34.99 -13 35.98 -13 37 C-8.71 37 -4.42 37 0 37 C0 24.79 0 12.58 0 0 Z " fill="#A2BF59" transform="translate(47,24)"/>
<path d="M0 0 C0.33 0 0.66 0 1 0 C1.02736707 1.39572052 1.04655989 2.79160221 1.0625 4.1875 C1.07410156 4.96480469 1.08570313 5.74210937 1.09765625 6.54296875 C1 9 1 9 0.50396729 11.18821716 C-0.11100663 14.61933887 -0.15545013 17.97259094 -0.16113281 21.44555664 C-0.16609772 22.17803619 -0.17106262 22.91051575 -0.17617798 23.66519165 C-0.19073881 26.08018958 -0.19759343 28.49512169 -0.203125 30.91015625 C-0.20595238 31.74010038 -0.20877975 32.57004452 -0.21169281 33.42513847 C-0.22666536 37.82208446 -0.23590547 42.21899784 -0.24023438 46.6159668 C-0.24569865 51.12905259 -0.26968875 55.64183358 -0.29820633 60.15482426 C-0.31695905 63.649275 -0.3220451 67.14365439 -0.32357025 70.63815117 C-0.32657176 72.30011081 -0.33451422 73.96206996 -0.34775543 75.62397957 C-0.44531475 88.8163664 -0.11102014 101.50784723 9 112 C11.98728416 114.57326823 15.15290225 116.10306409 18.75 117.6875 C19.73484375 118.12449219 20.7196875 118.56148438 21.734375 119.01171875 C22.48203125 119.33785156 23.2296875 119.66398437 24 120 C19.64722017 121.30679483 16.14994823 120.73819821 12 119 C8.7739745 116.91933859 5.74287739 114.69208336 3 112 C3 111.34 3 110.68 3 110 C2.34 110 1.68 110 1 110 C-2.0149473 102.39708943 -3.14915294 95.80152337 -3.16113281 87.58300781 C-3.16858017 86.34757736 -3.16858017 86.34757736 -3.17617798 85.08718872 C-3.19072314 82.37582548 -3.19758898 79.66452076 -3.203125 76.953125 C-3.20736607 75.55690037 -3.20736607 75.55690037 -3.21169281 74.13246918 C-3.22665503 69.20614846 -3.23590307 64.2798568 -3.24023438 59.35351562 C-3.245713 54.28538036 -3.26973676 49.21751456 -3.29820633 44.14946365 C-3.31690456 40.23389936 -3.32204214 36.31839904 -3.32357025 32.40279388 C-3.32658135 30.53543374 -3.33455724 28.6680743 -3.34775543 26.80075836 C-3.47068653 8.07066867 -3.47068653 8.07066867 0 0 Z " fill="#A1C42D" transform="translate(15,21)"/>
<path d="M0 0 C6.0405608 3.69145382 7.88580122 9.56904945 9.54270935 16.1582489 C10.12586729 19.78217979 10.1313163 23.34415267 10.11352539 27.00317383 C10.11367142 27.79394318 10.11381744 28.58471252 10.1139679 29.39944458 C10.11327362 32.00200179 10.105504 34.60448661 10.09765625 37.20703125 C10.09579035 39.01592469 10.09436726 40.82481864 10.09336853 42.63371277 C10.08955694 47.38643803 10.07973825 52.13913256 10.06866455 56.8918457 C10.05842123 61.7449502 10.05386465 66.59805968 10.04882812 71.45117188 C10.03811475 80.96746139 10.02105465 90.48372814 10 100 C9.67 100 9.34 100 9 100 C8.98969254 99.12827148 8.97938507 98.25654297 8.96876526 97.35839844 C8.87055083 89.1197872 8.76800368 80.88124352 8.66066074 72.64274597 C8.60563341 68.4078517 8.55224721 64.17295032 8.50268555 59.93798828 C8.4547423 55.84658203 8.40239148 51.75525319 8.34705925 47.66394043 C8.32677057 46.10756371 8.30803649 44.55116588 8.29092598 42.99475098 C8.26658031 40.80501733 8.23657134 38.61542584 8.20532227 36.42578125 C8.18977798 35.18223877 8.1742337 33.93869629 8.15821838 32.6574707 C7.98764009 28.71428104 7.53847548 24.90828598 7 21 C7 24.96 7 28.92 7 33 C6.01 33.495 6.01 33.495 5 34 C5 29.05 5 24.1 5 19 C4.34 19 3.68 19 3 19 C3.04125 17.96875 3.0825 16.9375 3.125 15.875 C3.00391651 12.12141188 2.22316884 9.50641733 1 6 C1.33 5.34 1.66 4.68 2 4 C1.34 4 0.68 4 0 4 C0 2.68 0 1.36 0 0 Z " fill="#75982F" transform="translate(143,13)"/>
<path d="M0 0 C7.60628324 -0.02319967 15.21256281 -0.04095394 22.81887341 -0.05181217 C26.35102274 -0.05702433 29.88314782 -0.06409164 33.4152832 -0.07543945 C37.47868072 -0.08841195 41.54205286 -0.093242 45.60546875 -0.09765625 C46.8702153 -0.10281754 48.13496185 -0.10797882 49.43803406 -0.11329651 C50.61888077 -0.11337204 51.79972748 -0.11344757 53.01635742 -0.11352539 C54.05338303 -0.115746 55.09040863 -0.11796661 56.15885925 -0.12025452 C58.87950872 -0.00509993 61.35156042 0.38597624 64 1 C63.67 1.66 63.34 2.32 63 3 C55.1529416 3.05080046 47.30592578 3.0857759 39.45874023 3.10986328 C36.79036743 3.11877541 34.12220998 3.13354451 31.45385742 3.15087891 C27.61374195 3.17519702 23.7737723 3.18649932 19.93359375 3.1953125 C18.74479111 3.20563507 17.55598846 3.21595764 16.3311615 3.22659302 C10.49199028 3.22738014 5.5020675 3.01917144 0 1 C0 0.67 0 0.34 0 0 Z " fill="#95B92A" transform="translate(43,141)"/>
<path d="M0 0 C0.33 0 0.66 0 1 0 C1 5.28 1 10.56 1 16 C1.66 16 2.32 16 3 16 C3.14695312 16.76183594 3.29390625 17.52367188 3.4453125 18.30859375 C5.35440294 27.09699283 8.20506542 34.88764651 16 40 C17.89549348 40.93980473 19.81382057 41.83465906 21.75 42.6875 C22.73484375 43.12449219 23.7196875 43.56148437 24.734375 44.01171875 C25.85585938 44.50091797 25.85585938 44.50091797 27 45 C22.64722017 46.30679483 19.14994823 45.73819821 15 44 C11.7739745 41.91933859 8.74287739 39.69208336 6 37 C6 36.34 6 35.68 6 35 C5.34 35 4.68 35 4 35 C0.62909246 26.49945055 -0.14275625 19.23717118 -0.0625 10.125 C-0.05798828 9.15046875 -0.05347656 8.1759375 -0.04882812 7.171875 C-0.03710906 4.78118566 -0.02070219 2.3906256 0 0 Z " fill="#A4C13F" transform="translate(12,96)"/>
<path d="M0 0 C0.33 0 0.66 0 1 0 C1 5.28 1 10.56 1 16 C-3.62 16 -8.24 16 -13 16 C-13.02684312 18.81256281 -13.04676188 21.62487241 -13.0625 24.4375 C-13.07087891 25.23994141 -13.07925781 26.04238281 -13.08789062 26.86914062 C-13.0965143 28.91295221 -13.0522815 30.95683902 -13 33 C-10.44946069 35.55053931 -2.09014574 34.7899901 1 35 C1 39.95 1 44.9 1 50 C0.67 50 0.34 50 0 50 C0 45.38 0 40.76 0 36 C-3.4340625 36.0309375 -3.4340625 36.0309375 -6.9375 36.0625 C-9.29166332 36.08370868 -11.64686445 36.07271741 -14 36 C-15.58937556 34.41062444 -15.12981143 32.76100154 -15.1328125 30.5625 C-15.13410156 29.66789062 -15.13539062 28.77328125 -15.13671875 27.8515625 C-15.13091797 26.44003906 -15.13091797 26.44003906 -15.125 25 C-15.12886719 24.05898437 -15.13273437 23.11796875 -15.13671875 22.1484375 C-15.13542969 21.25382812 -15.13414063 20.35921875 -15.1328125 19.4375 C-15.13112061 18.19806641 -15.13112061 18.19806641 -15.12939453 16.93359375 C-15 15 -15 15 -14 14 C-9.33154772 13.85573386 -4.67134047 13.95791585 0 14 C0 9.38 0 4.76 0 0 Z " fill="#E7F5C0" transform="translate(48,49)"/>
<path d="M0 0 C0.33 0 0.66 0 1 0 C1.08166849 3.00056084 1.14081551 5.9988539 1.1875 9 C1.22520508 10.25876953 1.22520508 10.25876953 1.26367188 11.54296875 C1.37795664 21.37145855 -1.99897642 28.51104672 -8.5625 35.875 C-11 38 -11 38 -14 38 C-14 37.01 -14 36.02 -14 35 C-13.29875 34.505 -12.5975 34.01 -11.875 33.5 C-6.61050287 28.92217641 -2.99425879 22.27898826 -2.125 15.3125 C-2.08375 14.219375 -2.0425 13.12625 -2 12 C-1.67 12 -1.34 12 -1 12 C-0.67 8.04 -0.34 4.08 0 0 Z " fill="#89AC2D" transform="translate(151,100)"/>
<path d="M0 0 C3.96 0 7.92 0 12 0 C12 0.33 12 0.66 12 1 C8.37 1 4.74 1 1 1 C1 7.27 1 13.54 1 20 C5.62 20 10.24 20 15 20 C15 20.33 15 20.66 15 21 C9.72 21 4.44 21 -1 21 C-1 20.34 -1 19.68 -1 19 C-2.55460937 18.92652344 -2.55460937 18.92652344 -4.140625 18.8515625 C-5.51044208 18.77650403 -6.88023248 18.70095753 -8.25 18.625 C-8.93191406 18.5940625 -9.61382812 18.563125 -10.31640625 18.53125 C-14.06482002 18.3128958 -16.72919393 17.79957477 -20 16 C-18.71222656 15.93941406 -17.42445312 15.87882812 -16.09765625 15.81640625 C-14.41925841 15.73201753 -12.74087364 15.6473687 -11.0625 15.5625 C-9.78729492 15.50352539 -9.78729492 15.50352539 -8.48632812 15.44335938 C-7.67744141 15.40146484 -6.86855469 15.35957031 -6.03515625 15.31640625 C-5.2862915 15.27974854 -4.53742676 15.24309082 -3.76586914 15.20532227 C-1.97538674 15.18228937 -1.97538674 15.18228937 -1 14 C-0.76472227 11.65012738 -0.58613583 9.29443961 -0.4375 6.9375 C-0.35371094 5.64714844 -0.26992187 4.35679688 -0.18359375 3.02734375 C-0.09271484 1.52880859 -0.09271484 1.52880859 0 0 Z " fill="#9AB947" transform="translate(71,85)"/>
<path d="M0 0 C-4.90058663 3.08036874 -9.01329025 5.25868846 -14.88208008 5.22705078 C-16.29297661 5.22682419 -16.29297661 5.22682419 -17.7323761 5.22659302 C-18.7346373 5.21627045 -19.7368985 5.20594788 -20.76953125 5.1953125 C-21.80567062 5.1924826 -22.84181 5.18965271 -23.90934753 5.18673706 C-27.21051707 5.17556454 -30.51141281 5.15046505 -33.8125 5.125 C-36.05403253 5.11496643 -38.29556933 5.10584124 -40.53710938 5.09765625 C-46.0248326 5.07563478 -51.51239674 5.04218621 -57 5 C-57 4.67 -57 4.34 -57 4 C-55.35354492 3.98598145 -55.35354492 3.98598145 -53.67382812 3.97167969 C-49.52093929 3.93118552 -45.36874614 3.86527758 -41.21630859 3.79248047 C-39.43417436 3.76460959 -37.65192429 3.74323051 -35.86962891 3.72900391 C-25.08343281 3.63785295 -15.34477719 2.81555956 -4.97460938 -0.24902344 C-2 -1 -2 -1 0 0 Z " fill="#83AB38" transform="translate(106,120)"/>
<path d="M0 0 C0.33 0.99 0.66 1.98 1 3 C-3.4227394 6.21404043 -7.54777224 8.1249426 -12.75 9.75 C-13.42160156 9.97042969 -14.09320313 10.19085938 -14.78515625 10.41796875 C-19.6884705 12 -19.6884705 12 -22 12 C-22 11.01 -22 10.02 -22 9 C-24.97 9 -27.94 9 -31 9 C-31 8.67 -31 8.34 -31 8 C-30.03320312 7.96261719 -29.06640625 7.92523438 -28.0703125 7.88671875 C-17.69768568 7.36295245 -8.50999481 6.49446972 0 0 Z " fill="#EDFAD5" transform="translate(102,98)"/>
<path d="M0 0 C0.33 0.66 0.66 1.32 1 2 C1.66 2.33 2.32 2.66 3 3 C1.75264433 3.6509259 0.50198168 4.29551669 -0.75 4.9375 C-1.79414063 5.47697266 -1.79414063 5.47697266 -2.859375 6.02734375 C-6.60674382 7.73007155 -9.88367058 8.12266055 -13.984375 8.09765625 C-14.91894531 8.09443359 -15.85351562 8.09121094 -16.81640625 8.08789062 C-17.78449219 8.07951172 -18.75257812 8.07113281 -19.75 8.0625 C-21.22533203 8.05573242 -21.22533203 8.05573242 -22.73046875 8.04882812 C-25.15370791 8.03706483 -27.57682273 8.02062684 -30 8 C-30 7.67 -30 7.34 -30 7 C-29.31897217 6.95512451 -28.63794434 6.91024902 -27.9362793 6.86401367 C-24.85218365 6.65275983 -21.77003438 6.4203863 -18.6875 6.1875 C-17.61564453 6.11724609 -16.54378906 6.04699219 -15.43945312 5.97460938 C-13.89741211 5.85375977 -13.89741211 5.85375977 -12.32421875 5.73046875 C-10.9024231 5.62835083 -10.9024231 5.62835083 -9.4519043 5.52416992 C-6.64870245 4.92489935 -5.82404789 4.13824449 -4 2 C-1.8125 0.8125 -1.8125 0.8125 0 0 Z " fill="#81A22E" transform="translate(136,136)"/>
<path d="M0 0 C0.7425 0.763125 1.485 1.52625 2.25 2.3125 C6.15875204 6.13241676 9.74304505 8.48205556 14.75 10.6875 C15.73484375 11.12449219 16.7196875 11.56148437 17.734375 12.01171875 C18.48203125 12.33785156 19.2296875 12.66398438 20 13 C14.93607175 14.54949468 10.59235991 13.27631513 5.9609375 10.99609375 C2.20443928 8.65407943 1.16012893 7.65119097 0.0625 3.1875 C0.041875 2.135625 0.02125 1.08375 0 0 Z " fill="#99BB34" transform="translate(19,128)"/>
<path d="M0 0 C-1.98 0.33 -3.96 0.66 -6 1 C-6.33 1.99 -6.66 2.98 -7 4 C-8.155 4.474375 -9.31 4.94875 -10.5 5.4375 C-14.11055592 6.57452585 -14.11055592 6.57452585 -14.9375 9.1875 C-14.958125 9.785625 -14.97875 10.38375 -15 11 C-15.99 11 -16.98 11 -18 11 C-18 12.32 -18 13.64 -18 15 C-18.99 15 -19.98 15 -21 15 C-18.78559841 8.15548601 -15.15134076 4.36617675 -8.9375 1.0625 C-5.50387873 -0.66753722 -3.66744072 -1.36364424 0 0 Z " fill="#ABC74E" transform="translate(37,6)"/>
<path d="M0 0 C0.66 0 1.32 0 2 0 C2 0.99 2 1.98 2 3 C6.29 3 10.58 3 15 3 C15 3.33 15 3.66 15 4 C13.71802734 4.09087891 13.71802734 4.09087891 12.41015625 4.18359375 C11.30542969 4.26738281 10.20070313 4.35117187 9.0625 4.4375 C7.96035156 4.51871094 6.85820313 4.59992187 5.72265625 4.68359375 C3.08890097 4.70418084 3.08890097 4.70418084 2 6 C1.84379445 7.41327947 1.74943827 8.8335459 1.68359375 10.25390625 C1.64169922 11.10791016 1.59980469 11.96191406 1.55664062 12.84179688 C1.49766602 14.18854492 1.49766602 14.18854492 1.4375 15.5625 C1.39431641 16.46419922 1.35113281 17.36589844 1.30664062 18.29492188 C1.20021858 20.52978485 1.09820012 22.76476308 1 25 C0.67 25 0.34 25 0 25 C-0.19789024 21.77138267 -0.38146345 18.54210273 -0.5625 15.3125 C-0.61857422 14.40048828 -0.67464844 13.48847656 -0.73242188 12.54882812 C-0.78076172 11.66259766 -0.82910156 10.77636719 -0.87890625 9.86328125 C-0.9260376 9.05157471 -0.97316895 8.23986816 -1.02172852 7.40356445 C-0.99838228 4.8210515 -0.5804792 2.51150091 0 0 Z " fill="#A4C350" transform="translate(32,58)"/>
<path d="M0 0 C4.59292409 2.80678694 6.45808882 6.02377606 8.28515625 10.91796875 C9.66631114 16.87278411 9.29131891 22.93085594 9 29 C8.67 29 8.34 29 8 29 C7.95101562 28.04738281 7.90203125 27.09476563 7.8515625 26.11328125 C7.77679688 24.85902344 7.70203125 23.60476562 7.625 22.3125 C7.52058594 20.45044922 7.52058594 20.45044922 7.4140625 18.55078125 C6.93994636 14.48501169 6.3153297 11.3153297 3.375 8.375 C2.92125 7.92125 2.4675 7.4675 2 7 C2 6.01 2 5.02 2 4 C1.34 4 0.68 4 0 4 C0 2.68 0 1.36 0 0 Z " fill="#84A13C" transform="translate(143,13)"/>
<path d="M0 0 C0.33 0 0.66 0 1 0 C1.60418483 9.73408893 1.60418483 9.73408893 -0.3125 13.75 C-4.77036168 15.82342404 -9.25297473 14.75297642 -14 14 C-13.79375 15.258125 -13.5875 16.51625 -13.375 17.8125 C-12.78664331 21.4014758 -12.83382585 21.75073878 -15 25 C-15 21.04 -15 17.08 -15 13 C-13.246875 12.87625 -11.49375 12.7525 -9.6875 12.625 C-5.83095639 12.35277339 -4.28491373 12.18994248 -1 10 C-0.41810734 7.57478506 -0.41810734 7.57478506 -0.3125 4.875 C-0.24675781 3.96492188 -0.18101563 3.05484375 -0.11328125 2.1171875 C-0.07589844 1.41851562 -0.03851563 0.71984375 0 0 Z " fill="#9BBC2F" transform="translate(87,73)"/>
<path d="M0 0 C0.33 0.66 0.66 1.32 1 2 C-0.14089995 5.42269984 -1.20964571 6.7522146 -4 9 C-6.75 9.25 -6.75 9.25 -9 9 C-9 9.66 -9 10.32 -9 11 C-11.31 11.33 -13.62 11.66 -16 12 C-15.01 11.34 -14.02 10.68 -13 10 C-11.32949472 8.85977024 -9.66319274 7.71336998 -8 6.5625 C-7.13375 5.96566406 -6.2675 5.36882812 -5.375 4.75390625 C-3.37726114 3.27860239 -1.68555805 1.81308383 0 0 Z " fill="#8DB349" transform="translate(122,107)"/>
<path d="M0 0 C4.86896303 0.59619955 9.32790951 1.56976822 14 3 C13.34 3.66 12.68 4.32 12 5 C8.84765625 4.828125 8.84765625 4.828125 5.0625 4.25 C3.19271484 3.97929687 3.19271484 3.97929687 1.28515625 3.703125 C-2 3 -2 3 -5 1 C-3.35 1 -1.7 1 0 1 C0 0.67 0 0.34 0 0 Z " fill="#87A22F" transform="translate(36,140)"/>
<path d="M0 0 C0.99 0.33 1.98 0.66 3 1 C-3.98386322 5.24509333 -8.87589113 6.13769676 -17 6 C-14.34339786 3.34339786 -12.15470396 3.2096775 -8.5 2.4375 C-4.12295695 1.5836887 -4.12295695 1.5836887 0 0 Z " fill="#71A825" transform="translate(134,135)"/>
<path d="M0 0 C0.33 0 0.66 0 1 0 C1.46360304 8.37919574 0.77770111 15.39691302 -5 22 C-5 19.36 -5 16.72 -5 14 C-4.01 14 -3.02 14 -2 14 C-2 12.35 -2 10.7 -2 9 C-1.34 9 -0.68 9 0 9 C0 6.03 0 3.06 0 0 Z " fill="#92B63C" transform="translate(113,70)"/>
<path d="M0 0 C0.66 0 1.32 0 2 0 C1.69121904 3.60244452 1.00552268 4.99345998 -1.375 7.8125 C-4 10 -4 10 -7 10 C-7 9.01 -7 8.02 -7 7 C-5.36739286 5.62517293 -3.69774938 4.29352333 -2 3 C-1.34 2.01 -0.68 1.02 0 0 Z " fill="#96B82A" transform="translate(144,128)"/>
<path d="M0 0 C0.66 0.66 1.32 1.32 2 2 C0.92173635 3.27513763 -0.16285519 4.54492569 -1.25 5.8125 C-1.85328125 6.52019531 -2.4565625 7.22789063 -3.078125 7.95703125 C-4.92370398 9.91889671 -6.79945332 11.45669625 -9 13 C-9.66 12.34 -10.32 11.68 -11 11 C-10.34 11 -9.68 11 -9 11 C-9 10.34 -9 9.68 -9 9 C-8.071875 8.401875 -7.14375 7.80375 -6.1875 7.1875 C-2.98984498 4.99303087 -1.70653139 3.41306279 0 0 Z " fill="#E9F8D3" transform="translate(126,99)"/>
<path d="M0 0 C3.34093309 3.6591172 4.92975789 8.22081542 6 13 C5.67 13.66 5.34 14.32 5 15 C4.5875 13.88625 4.175 12.7725 3.75 11.625 C2.64453484 9.00679305 2.25119213 8.16506911 -0.1875 6.5625 C-0.785625 6.376875 -1.38375 6.19125 -2 6 C-1.34 4.02 -0.68 2.04 0 0 Z " fill="#A3C240" transform="translate(108,55)"/>
<path d="M0 0 C6.80203375 -0.37634203 11.75690073 0.22528921 18 3 C12.06796499 4.977345 5.79200533 2.81000167 0 1 C0 0.67 0 0.34 0 0 Z " fill="#A0BF41" transform="translate(118,4)"/>
<path d="M0 0 C0.33 0.99 0.66 1.98 1 3 C-3.50552315 6.10380484 -6.66396635 8.15304973 -12.1875 8.0625 C-14.0746875 8.0315625 -14.0746875 8.0315625 -16 8 C-16 7.67 -16 7.34 -16 7 C-15.02160156 6.74476562 -15.02160156 6.74476562 -14.0234375 6.484375 C-8.63277496 4.98961902 -4.45246128 3.39793098 0 0 Z " fill="#E4F4C2" transform="translate(102,98)"/>
<path d="M0 0 C1.60727327 0.22917968 3.21087416 0.48420802 4.8125 0.75 C5.70582031 0.88921875 6.59914062 1.0284375 7.51953125 1.171875 C10 2 10 2 13 6 C9.37 5.01 5.74 4.02 2 3 C2 2.34 2 1.68 2 1 C1.34 0.67 0.68 0.34 0 0 Z " fill="#99BA34" transform="translate(130,7)"/>
<path d="M0 0 C0.66 0.33 1.32 0.66 2 1 C1.67 2.65 1.34 4.3 1 6 C0.34 6 -0.32 6 -1 6 C-1.33 8.97 -1.66 11.94 -2 15 C-2.66 15 -3.32 15 -4 15 C-3.67 11.37 -3.34 7.74 -3 4 C-2.01 4 -1.02 4 0 4 C0 2.68 0 1.36 0 0 Z " fill="#91BE25" transform="translate(19,17)"/>
<path d="M0 0 C0.33 0 0.66 0 1 0 C1.08086376 2.93804996 1.1404283 5.87388075 1.1875 8.8125 C1.21263672 9.64587891 1.23777344 10.47925781 1.26367188 11.33789062 C1.27333984 12.14033203 1.28300781 12.94277344 1.29296875 13.76953125 C1.3086792 14.50792236 1.32438965 15.24631348 1.34057617 16.00708008 C1 18 1 18 -2 21 C-1.01 10.605 -1.01 10.605 0 0 Z " fill="#8FB651" transform="translate(136,69)"/>
<path d="M0 0 C8.57142857 -0.14285714 8.57142857 -0.14285714 12 1 C12 1.66 12 2.32 12 3 C12.66 3.33 13.32 3.66 14 4 C12.02 4.33 10.04 4.66 8 5 C8 4.01 8 3.02 8 2 C5.36 1.67 2.72 1.34 0 1 C0 0.67 0 0.34 0 0 Z " fill="#83B62E" transform="translate(120,7)"/>
<path d="M0 0 C-4.74416858 2.98204882 -8.32189432 5 -14 5 C-13.67 4.01 -13.34 3.02 -13 2 C-10.56640625 1.015625 -10.56640625 1.015625 -7.5625 0.25 C-6.57378906 -0.01296875 -5.58507812 -0.2759375 -4.56640625 -0.546875 C-2 -1 -2 -1 0 0 Z " fill="#8EB349" transform="translate(106,120)"/>
<path d="M0 0 C-1.98 0.33 -3.96 0.66 -6 1 C-6.33 1.99 -6.66 2.98 -7 4 C-8.65 4.33 -10.3 4.66 -12 5 C-11 2 -11 2 -7.6875 0.25 C-3.02436902 -1.33072237 -3.02436902 -1.33072237 0 0 Z " fill="#A4C153" transform="translate(37,6)"/>
<path d="M0 0 C2.97 1.98 2.97 1.98 6 4 C5.01 4.495 5.01 4.495 4 5 C3.34 4.67 2.68 4.34 2 4 C2 4.99 2 5.98 2 7 C1.34 7 0.68 7 0 7 C-0.38133299 5.0085944 -0.71325582 3.00720923 -1 1 C-0.67 0.67 -0.34 0.34 0 0 Z " fill="#F0FBDC" transform="translate(114,33)"/>
<path d="M0 0 C0.99 1.98 1.98 3.96 3 6 C2.01 6 1.02 6 0 6 C-2.1875 3.5 -2.1875 3.5 -4 1 C-2 0 -2 0 0 0 Z " fill="#9EC24C" transform="translate(124,36)"/>
<path d="M0 0 C0.99 0.33 1.98 0.66 3 1 C2.1875 2.9375 2.1875 2.9375 1 5 C0.01 5.33 -0.98 5.66 -2 6 C-2 4.35 -2 2.7 -2 1 C-1.34 0.67 -0.68 0.34 0 0 Z " fill="#6DA424" transform="translate(139,129)"/>
<path d="M0 0 C3 1 3 1 4.6875 4.375 C6 8 6 8 6 11 C4.9944239 9.54550599 3.99569565 8.08627557 3 6.625 C2.443125 5.81289062 1.88625 5.00078125 1.3125 4.1640625 C0 2 0 2 0 0 Z " fill="#79AB1C" transform="translate(17,122)"/>
<path d="M0 0 C1.42944945 2.35438733 2.08661261 3.48032433 1.625 6.25 C1.41875 6.8275 1.2125 7.405 1 8 C0.67 7.01 0.34 6.02 0 5 C-0.66 5 -1.32 5 -2 5 C-2 4.01 -2 3.02 -2 2 C-1.34 2 -0.68 2 0 2 C0 1.34 0 0.68 0 0 Z " fill="#A8C05C" transform="translate(18,126)"/>
<path d="M0 0 C2.00720923 0.28674418 4.0085944 0.61866701 6 1 C4.6875 2.5 4.6875 2.5 3 4 C2.01 4 1.02 4 0 4 C-0.33 3.01 -0.66 2.02 -1 1 C-0.67 0.67 -0.34 0.34 0 0 Z " fill="#E7F7CE" transform="translate(106,114)"/>
<path d="" fill="#FFFFFF" transform="translate(0,0)"/>
<path d="" fill="#FFFFFF" transform="translate(0,0)"/>
<path d="" fill="#FFFFFF" transform="translate(0,0)"/>
<path d="" fill="#FFFFFF" transform="translate(0,0)"/>
<path d="" fill="#FFFFFF" transform="translate(0,0)"/>
<path d="" fill="#FFFFFE" transform="translate(0,0)"/>
<path d="" fill="#FFFFFF" transform="translate(0,0)"/>
<path d="" fill="#FFFFFF" transform="translate(0,0)"/>
<path d="" fill="#FFFFFF" transform="translate(0,0)"/>
<path d="" fill="#FFFFFF" transform="translate(0,0)"/>
<path d="" fill="#FFFFFF" transform="translate(0,0)"/>
<path d="" fill="#FFFFFF" transform="translate(0,0)"/>
<path d="" fill="#FFFFFF" transform="translate(0,0)"/>
<path d="" fill="#FFFFFF" transform="translate(0,0)"/>
<path d="" fill="#FFFFFF" transform="translate(0,0)"/>
<path d="" fill="#FFFFFF" transform="translate(0,0)"/>
<path d="" fill="#FFFFFF" transform="translate(0,0)"/>
<path d="" fill="#FFFFFF" transform="translate(0,0)"/>
<path d="" fill="#FFFFFF" transform="translate(0,0)"/>
<path d="" fill="#FFFFFF" transform="translate(0,0)"/>
<path d="" fill="#FFFFFF" transform="translate(0,0)"/>
<path d="" fill="#FFFFFF" transform="translate(0,0)"/>
<path d="" fill="#FFFFFF" transform="translate(0,0)"/>
</svg>
